<!-- Generated by IcoMoon.io -->
<svg version="1.1" xmlns="http://www.w3.org/2000/svg" width="100" height="24" viewBox="0 0 100 24">
<path fill="#000" d="M38.502 12.048c-0.864 0-1.705 0.281-2.397 0.799v-0.673c0-0.070-0.056-0.126-0.126-0.126h-1.552c-0.069 0-0.126 0.056-0.126 0.126v10.371c0 0.070 0.056 0.126 0.126 0.126h1.552c0.069 0 0.126-0.056 0.126-0.126v-3.245c1.4 1.048 3.316 1.069 4.738 0.051s2.025-2.84 1.49-4.508c-0.534-1.668-2.083-2.798-3.831-2.795v0zM38.502 18.241c-1.195-0.002-2.162-0.973-2.161-2.171s0.97-2.168 2.165-2.167c1.195 0.001 2.163 0.971 2.163 2.169-0 0.576-0.229 1.127-0.635 1.534s-0.957 0.635-1.531 0.635v0z"></path>
<path fill="#000" d="M48.826 17.589c-0.012 0.015-0.026 0.032-0.041 0.047-0.405 0.397-0.954 0.613-1.52 0.597-0.566 0.020-1.115-0.194-1.52-0.59-0.173-0.172-0.312-0.375-0.408-0.6-0.043-0.1-0.079-0.203-0.105-0.309-0.006-0.015-0.006-0.032 0-0.047 0.009-0.014 0.023-0.024 0.039-0.026h5.867c0 0 0.115 0 0.126-0.096 0 0 0.026-0.23 0.026-0.464-0.003-0.364-0.049-0.727-0.138-1.080-0.091-0.326-0.223-0.638-0.392-0.931-0.354-0.619-0.869-1.129-1.491-1.476-0.622-0.358-1.328-0.545-2.045-0.543-2.196 0.041-3.955 1.837-3.955 4.038s1.759 3.997 3.955 4.038c0.719 0.007 1.428-0.177 2.053-0.533 0.527-0.303 0.975-0.725 1.309-1.234 0.005-0.008 0.007-0.018 0.004-0.027s-0.010-0.016-0.019-0.019c-0.18-0.087-0.363-0.165-0.546-0.247l-1.101-0.494c-0.022-0.014-0.062-0.043-0.097-0.004zM45.753 14.582c0.859-0.79 2.177-0.793 3.040-0.007 0.134 0.127 0.246 0.276 0.332 0.44 0.016 0.027 0.030 0.055 0.041 0.084 0.018 0.060-0.026 0.060-0.026 0.060h-3.731c0 0-0.054 0-0.028-0.054s0.055-0.105 0.086-0.155c0.079-0.134 0.175-0.258 0.286-0.368v0z"></path>
<path fill="#000" d="M55.498 12.077c-0.889-0.001-1.741 0.352-2.37 0.982s-0.983 1.483-0.983 2.374v4.54c0 0.076 0.062 0.138 0.138 0.138h1.668c0.076 0 0.138-0.062 0.138-0.138v-4.54c0-0.783 0.633-1.418 1.415-1.418s1.415 0.635 1.415 1.418v4.54c0 0.076 0.062 0.138 0.138 0.138h1.668c0.076 0 0.138-0.062 0.138-0.138v-4.54c-0.001-0.893-0.356-1.748-0.987-2.378s-1.487-0.981-2.377-0.978v0z"></path>
<path fill="#000" d="M64.018 20.178c-1.058 0.001-2.074-0.42-2.823-1.17s-1.17-1.767-1.171-2.827v-6.094c0.001-0.089 0.073-0.161 0.162-0.161h1.986c0.089 0 0.161 0.072 0.162 0.161v6.094c0 0.932 0.754 1.688 1.684 1.688s1.684-0.756 1.684-1.688v-6.094c0.001-0.089 0.073-0.161 0.162-0.161h1.986c0.089 0 0.161 0.072 0.162 0.161v6.094c-0.001 1.061-0.422 2.078-1.171 2.827s-1.764 1.17-2.823 1.17z"></path>
<path fill="#000" d="M29.314 12.074c-1.629 0-3.097 0.984-3.72 2.492s-0.278 3.245 0.875 4.399c1.152 1.154 2.885 1.498 4.389 0.872s2.484-2.099 2.483-3.732c-0.002-2.228-1.804-4.032-4.026-4.032v0zM29.314 18.139c-1.118 0-2.025-0.908-2.026-2.029s0.905-2.030 2.024-2.031c1.118-0.001 2.026 0.907 2.028 2.028 0.001 0.539-0.212 1.056-0.592 1.438s-0.896 0.596-1.434 0.595v0z"></path>
<path fill="#000" d="M77.407 12.996c0 0.951-0.473 1.51-1.163 1.828 1.297 0.324 1.892 1.087 1.892 2.289 0 2.032-1.499 3.064-3.647 3.064h-4.856c-0.119 0-0.216-0.097-0.216-0.216v-9.811c0.001-0.12 0.097-0.217 0.217-0.217h4.126c2.147 0.001 3.646 1.032 3.646 3.064zM71.51 12.217v1.559c0 0.119 0.097 0.216 0.216 0.216 1.035 0 1.257 0 2.063 0 1.3 0 1.535-0.562 1.534-0.997s-0.234-1-1.561-1h-2.034c-0.058 0-0.114 0.023-0.155 0.065s-0.063 0.098-0.062 0.156zM71.51 16.179v1.715c0 0.119 0.097 0.216 0.216 0.216h2.845c1.329 0 1.48-0.564 1.48-0.999s-0.152-1.154-1.451-1.154c-0.857 0-1.425 0-2.874 0-0.058 0.001-0.113 0.024-0.154 0.066s-0.063 0.098-0.062 0.156v0z"></path>
<path fill="#000" d="M81.235 10.027l3.202 5.648 3.202-5.648c0.031-0.056 0.091-0.091 0.155-0.091h1.812c0.098 0 0.178 0.080 0.178 0.179v9.884c0 0.099-0.080 0.179-0.178 0.179h-1.737c-0.098 0-0.178-0.080-0.178-0.179v-5.832l-2.688 4.741c-0.031 0.056-0.090 0.090-0.153 0.090h-0.829c-0.064 0-0.123-0.034-0.155-0.090l-2.681-4.741v5.831c0 0.099-0.080 0.179-0.178 0.179h-1.737c-0.047 0-0.092-0.019-0.126-0.052s-0.052-0.079-0.051-0.126v-9.883c-0-0.047 0.018-0.093 0.051-0.126s0.078-0.052 0.126-0.052h1.809c0.065-0.001 0.126 0.034 0.158 0.091v0z"></path>
<path fill="#000" d="M96.256 9.977c1.177 0 2.722 0.648 3.634 1.493 0.070 0.067 0.11 0.161 0.11 0.258s-0.040 0.191-0.11 0.258l-0.865 0.845c-0.134 0.131-0.346 0.136-0.485 0.011-0.586-0.546-1.542-0.956-2.29-0.956h-0.012c-1.137 0.002-2.187 0.612-2.753 1.601s-0.564 2.204 0.006 3.19c0.57 0.986 1.622 1.592 2.76 1.59 0.748 0 1.705-0.415 2.29-0.956 0.139-0.126 0.352-0.121 0.485 0.011l0.865 0.845c0.070 0.067 0.11 0.161 0.11 0.258s-0.040 0.191-0.11 0.258c-0.912 0.845-2.457 1.493-3.634 1.493-2.846 0-5.155-2.285-5.155-5.101s2.309-5.099 5.153-5.099h0.003z"></path>
<path fill="#418cff" d="M0.22 14.368v-4.415c0-1.395 1.128-2.526 2.52-2.526s2.52 1.131 2.52 2.526v4.44c0 2.475 1.972 4.529 4.442 4.554 1.198 0.010 2.35-0.459 3.201-1.305s1.329-1.997 1.328-3.197v-4.491c0-1.395 1.128-2.526 2.52-2.526s2.52 1.131 2.52 2.526v4.491c0 5.277-4.267 9.555-9.531 9.556-5.237 0-9.522-4.382-9.522-9.632z"></path>
<path fill="#418cff" d="M16.777 0c1.406 0 2.545 1.14 2.545 2.545v0.012c0 1.406-1.14 2.545-2.545 2.545s-2.545-1.14-2.545-2.545v-0.012c0-1.406 1.14-2.545 2.545-2.545z"></path>
<path fill="#418cff" d="M2.88 0.018c-1.593 0.003-2.882 1.299-2.88 2.895s1.294 2.889 2.887 2.888c1.593-0.001 2.883-1.295 2.883-2.892 0-0.768-0.305-1.504-0.847-2.047s-1.278-0.846-2.044-0.845v0zM2.88 4.364c-0.801 0-1.451-0.651-1.451-1.454s0.65-1.454 1.451-1.454c0.801 0 1.451 0.651 1.451 1.454s-0.65 1.454-1.451 1.454v0z"></path>
</svg>
